<mxfile host="65bd71144e">
    <diagram name="Page-1" id="f0F9xmiXlt0UBAc9oVBs">
        <mxGraphModel dx="1091" dy="779" grid="1" gridSize="10" guides="1" tooltips="1" connect="1" arrows="1" fold="1" page="1" pageScale="1" pageWidth="850" pageHeight="1100" math="0" shadow="0">
            <root>
                <mxCell id="0"/>
                <mxCell id="1" parent="0"/>
                <mxCell id="P8ioFLtUXDWjbqp6fgjP-55" value="MEMBERS" style="swimlane;childLayout=stackLayout;horizontal=1;startSize=50;horizontalStack=0;rounded=1;fontSize=14;fontStyle=0;strokeWidth=2;resizeParent=0;resizeLast=1;shadow=0;dashed=0;align=center;arcSize=4;whiteSpace=wrap;html=1;" parent="1" vertex="1">
                    <mxGeometry x="70" y="620" width="160" height="120" as="geometry"/>
                </mxCell>
                <mxCell id="P8ioFLtUXDWjbqp6fgjP-56" value="+SRN&lt;br&gt;+ROLE&lt;br&gt;+" style="align=left;strokeColor=none;fillColor=none;spacingLeft=4;fontSize=12;verticalAlign=top;resizable=0;rotatable=0;part=1;html=1;" parent="P8ioFLtUXDWjbqp6fgjP-55" vertex="1">
                    <mxGeometry y="50" width="160" height="70" as="geometry"/>
                </mxCell>
                <mxCell id="P8ioFLtUXDWjbqp6fgjP-57" value="PROJECT" style="swimlane;childLayout=stackLayout;horizontal=1;startSize=50;horizontalStack=0;rounded=1;fontSize=14;fontStyle=0;strokeWidth=2;resizeParent=0;resizeLast=1;shadow=0;dashed=0;align=center;arcSize=4;whiteSpace=wrap;html=1;" parent="1" vertex="1">
                    <mxGeometry x="650" y="260" width="160" height="120" as="geometry"/>
                </mxCell>
                <mxCell id="P8ioFLtUXDWjbqp6fgjP-58" value="+PEOJECT_ID&lt;br&gt;+DESCRIPTION&lt;br&gt;+CREATION_DATE" style="align=left;strokeColor=none;fillColor=none;spacingLeft=4;fontSize=12;verticalAlign=top;resizable=0;rotatable=0;part=1;html=1;" parent="P8ioFLtUXDWjbqp6fgjP-57" vertex="1">
                    <mxGeometry y="50" width="160" height="70" as="geometry"/>
                </mxCell>
                <mxCell id="P8ioFLtUXDWjbqp6fgjP-59" value="USER" style="swimlane;childLayout=stackLayout;horizontal=1;startSize=50;horizontalStack=0;rounded=1;fontSize=14;fontStyle=0;strokeWidth=2;resizeParent=0;resizeLast=1;shadow=0;dashed=0;align=center;arcSize=4;whiteSpace=wrap;html=1;" parent="1" vertex="1">
                    <mxGeometry x="110" y="320" width="160" height="160" as="geometry"/>
                </mxCell>
                <mxCell id="P8ioFLtUXDWjbqp6fgjP-60" value="+SRN&lt;br&gt;+NAME&lt;br&gt;+EMAIL&lt;br&gt;+PHONENNUMBER&lt;br&gt;+DEPT&lt;br&gt;+SEMESTER" style="align=left;strokeColor=none;fillColor=none;spacingLeft=4;fontSize=12;verticalAlign=top;resizable=0;rotatable=0;part=1;html=1;" parent="P8ioFLtUXDWjbqp6fgjP-59" vertex="1">
                    <mxGeometry y="50" width="160" height="110" as="geometry"/>
                </mxCell>
                <mxCell id="2" value="STUDY_GROUP" style="swimlane;childLayout=stackLayout;horizontal=1;startSize=30;horizontalStack=0;rounded=1;fontSize=14;fontStyle=0;strokeWidth=2;resizeParent=0;resizeLast=1;shadow=0;dashed=0;align=center;" parent="1" vertex="1">
                    <mxGeometry x="450" y="430" width="160" height="110" as="geometry"/>
                </mxCell>
                <mxCell id="3" value="+GROUP_ID&#10;+GROUP_NAME&#10;+OWNER&#10;+CREATION_DATE" style="align=left;strokeColor=none;fillColor=none;spacingLeft=4;fontSize=12;verticalAlign=top;resizable=0;rotatable=0;part=1;" parent="2" vertex="1">
                    <mxGeometry y="30" width="160" height="80" as="geometry"/>
                </mxCell>
                <mxCell id="4" value="RESOURCE" style="swimlane;childLayout=stackLayout;horizontal=1;startSize=30;horizontalStack=0;rounded=1;fontSize=14;fontStyle=0;strokeWidth=2;resizeParent=0;resizeLast=1;shadow=0;dashed=0;align=center;" parent="1" vertex="1">
                    <mxGeometry x="345" y="730" width="160" height="120" as="geometry"/>
                </mxCell>
                <mxCell id="5" value="+resource_id&#10;+url&#10;+discription" style="align=left;strokeColor=none;fillColor=none;spacingLeft=4;fontSize=12;verticalAlign=top;resizable=0;rotatable=0;part=1;" parent="4" vertex="1">
                    <mxGeometry y="30" width="160" height="90" as="geometry"/>
                </mxCell>
            </root>
        </mxGraphModel>
    </diagram>
</mxfile>